<svg id="Isolation_Mode" data-name="Isolation Mode" xmlns="http://www.w3.org/2000/svg" viewBox="0 0 488 136"><defs><style>.cls-1{fill:#fff}</style></defs><path id="Path" class="cls-1" d="M75.08 81c11.39 0 20 1.63 25.52 5.08 5.33 3.46 8.13 9.34 8.13 17.73V115a26.81 26.81 0 0 1-2 11.4 17.45 17.45 0 0 1-6.58 7.1 28.14 28.14 0 0 1-10.91 3.5 98 98 0 0 1-15.31 1H4.44A3.44 3.44 0 0 1 1 134.55a3.27 3.27 0 0 1 0-.55l2.28-14.35a3.44 3.44 0 0 1 3.39-2.9h65.98c3.68 0 6.12-.62 7.63-2 1.81-1.33 2.72-5.3 2.72-8.42s0-3.46-1.84-4.84c-1.5-1.32-4.83-1.42-8.51-1.42h-36.2c-11.77 0-20.28-1.61-25.57-5.07s-8.1-13.61-8.1-22V62.28a27.14 27.14 0 0 1 2-11.37 16.33 16.33 0 0 1 6.58-7.11 29.7 29.7 0 0 1 10.9-3.67A89.81 89.81 0 0 1 37.53 39h63.86a3.43 3.43 0 0 1 3.43 3.43 3.27 3.27 0 0 1 0 .54l-2.31 14.47a3.45 3.45 0 0 1-3.4 2.89H38.83a13.06 13.06 0 0 0-7.9 2c-1.51 1.31-2.41 4.1-2.41 8.22s.9 6.8 2.41 8.18c1.82 1.43 4.25 2.18 7.9 2.18z" transform="translate(-1 -2)"/><path id="Path-2" data-name="Path" class="cls-1" d="M231.05 137.64h-21.82a3.42 3.42 0 0 1-2.42-1l-31.94-31.86a3.44 3.44 0 0 0-4.74-.1l-16.32 14.92a3.4 3.4 0 0 0-1.12 2.53v12.1a3.44 3.44 0 0 1-3.44 3.44h-17.81a3.44 3.44 0 0 1-3.44-3.44V11.38a3.44 3.44 0 0 1 2.35-3.26l17.82-5.94a3.43 3.43 0 0 1 4.34 2.17 3.37 3.37 0 0 1 .18 1.09V85a3.44 3.44 0 0 0 5.81 2.48l50.12-47.91a3.44 3.44 0 0 1 2.37-1h20.35a3.44 3.44 0 0 1 2.36 5.94l-43.32 40.81a3.43 3.43 0 0 0-.14 4.85.68.68 0 0 0 .12.12l43.07 41.44a3.43 3.43 0 0 1-2.38 5.91z" transform="translate(-1 -2)"/><path id="Path-3" data-name="Path" class="cls-1" d="M301 134.56V7.44A3.44 3.44 0 0 1 304.44 4h18.13A3.44 3.44 0 0 1 326 7.44v127.11a3.44 3.44 0 0 1-3.43 3.44h-18.13a3.44 3.44 0 0 1-3.44-3.43z" transform="translate(-1 -2)"/><path id="Path-4" data-name="Path" class="cls-1" d="M347 134.56V7.44A3.44 3.44 0 0 1 350.44 4h18.13A3.44 3.44 0 0 1 372 7.44v127.11a3.44 3.44 0 0 1-3.43 3.44h-18.13a3.44 3.44 0 0 1-3.44-3.43z" transform="translate(-1 -2)"/><path id="Shape" class="cls-1" d="M485.56 118h-47.9a3.44 3.44 0 0 1-2.45-5.85L488 58.47a3.41 3.41 0 0 0 1-2.41V42.44a3.44 3.44 0 0 0-3.44-3.44h-88.12a3.44 3.44 0 0 0-3.44 3.44v13.48a3.44 3.44 0 0 0 3.44 3.43h48.23a3.44 3.44 0 0 1 2.41 5.89L395 117.5a3.47 3.47 0 0 0-1 2.45v14.61a3.44 3.44 0 0 0 3.44 3.44h88.12a3.44 3.44 0 0 0 3.44-3.44v-13.18a3.44 3.44 0 0 0-3.44-3.38z" transform="translate(-1 -2)"/><path class="cls-1" d="M275.55 5h-18.11A3.44 3.44 0 0 0 254 8.44v18.31h25V8.44A3.44 3.44 0 0 0 275.55 5zM254 133.21c0 2.65 1.54 4.79 3.44 4.79h18.11c1.9 0 3.44-2.14 3.44-4.79V37H254z" transform="translate(-1 -2)"/></svg>